<svg xmlns="http://www.w3.org/2000/svg" viewBox="0 0 37.042 37.042" height="140" width="140"><g transform="translate(-39.688 -114.438)"><ellipse ry="67.28" rx="61.988" cy="103.476" cx="94.494" fill="none"/><ellipse ry="59.72" rx="71.06" cy="203.262" cx="73.327" fill="none"/><circle r="18.426" cy="132.958" cx="58.208" fill="none" stroke="#fff" stroke-width=".529"/><path d="M58.208 121.105a11.853 11.853 0 1 1-11.853 11.853 11.853 11.853 0 0 1 11.853-11.853zm0 1.111a10.742 10.742 0 1 1-10.742 10.742 10.742 10.742 0 0 1 10.742-10.742zm4.461 10.87a.764.764 0 0 1-.375.658l-5.6 3.307a.01.01 0 0 0-.004.005h-.006a.747.747 0 0 1-.389.109.767.767 0 0 1-.764-.765v-6.628a.765.765 0 0 1 .764-.764.745.745 0 0 1 .39.106h.005a.01.01 0 0 0 .005.005l5.599 3.307a.767.767 0 0 1 .375.659z" class="cls-1" data-name="Play icon" fill="#fff" fill-rule="evenodd"/></g></svg>