<svg
   xmlns:dc="http://purl.org/dc/elements/1.1/"
   xmlns:cc="http://creativecommons.org/ns#"
   xmlns:rdf="http://www.w3.org/1999/02/22-rdf-syntax-ns#"
   xmlns:svg="http://www.w3.org/2000/svg"
   xmlns="http://www.w3.org/2000/svg"
   id="svg8"
   version="1.1"
   viewBox="0 0 210 297"
   height="297mm"
   width="210mm">
  <defs
     id="defs2" />
  <metadata
     id="metadata5">
    <rdf:RDF>
      <cc:Work
         rdf:about="">
        <dc:format>image/svg+xml</dc:format>
        <dc:type
           rdf:resource="http://purl.org/dc/dcmitype/StillImage" />
        <dc:title></dc:title>
      </cc:Work>
    </rdf:RDF>
  </metadata>
  <g
     id="layer1">
    <g
       id="text12"
       style="font-style:normal;font-variant:normal;font-weight:normal;font-stretch:normal;font-size:21.16666603px;line-height:1.25;font-family:Montserrat;-inkscape-font-specification:'Montserrat, Normal';font-variant-ligatures:normal;font-variant-caps:normal;font-variant-numeric:normal;font-feature-settings:normal;text-align:start;letter-spacing:0px;word-spacing:0px;writing-mode:lr-tb;text-anchor:start;fill:#000000;fill-opacity:1;stroke:none;stroke-width:0.26458332"
       aria-label="text">
      <path
         id="path14"
         style="font-style:normal;font-variant:normal;font-weight:normal;font-stretch:normal;font-size:21.16666603px;font-family:Montserrat;-inkscape-font-specification:'Montserrat, Normal';font-variant-ligatures:normal;font-variant-caps:normal;font-variant-numeric:normal;font-feature-settings:normal;text-align:start;writing-mode:lr-tb;text-anchor:start;stroke-width:0.26458332"
         d="m 78.26224,136.81672 q -0.423333,0.381 -1.058333,0.59266 -0.613834,0.1905 -1.291167,0.1905 -1.566333,0 -2.413,-0.84666 -0.846666,-0.84667 -0.846666,-2.39184 v -6.731 h -1.989667 v -1.27 h 1.989667 v -2.43416 h 1.502833 v 2.43416 h 3.386666 v 1.27 h -3.386666 v 6.64634 q 0,0.99483 0.486833,1.524 0.508,0.508 1.439333,0.508 0.465667,0 0.889,-0.14817 0.4445,-0.14817 0.762,-0.42333 z" />
      <path
         id="path16"
         style="font-style:normal;font-variant:normal;font-weight:normal;font-stretch:normal;font-size:21.16666603px;font-family:Montserrat;-inkscape-font-specification:'Montserrat, Normal';font-variant-ligatures:normal;font-variant-caps:normal;font-variant-numeric:normal;font-feature-settings:normal;text-align:start;writing-mode:lr-tb;text-anchor:start;stroke-width:0.26458332"
         d="M 90.278953,132.39288 H 80.96562 q 0.127,1.73567 1.3335,2.81517 1.2065,1.05833 3.048,1.05833 1.037167,0 1.905,-0.35983 0.867834,-0.381 1.502834,-1.10067 l 0.846666,0.97367 q -0.740833,0.889 -1.862666,1.35467 -1.100667,0.46566 -2.434167,0.46566 -1.7145,0 -3.048,-0.71966 -1.312333,-0.74084 -2.053167,-2.032 -0.740833,-1.29117 -0.740833,-2.921 0,-1.62984 0.6985,-2.921 0.719667,-1.29117 1.947333,-2.01084 1.248834,-0.71966 2.794,-0.71966 1.545167,0 2.772834,0.71966 1.227666,0.71967 1.926166,2.01084 0.6985,1.27 0.6985,2.921 z m -5.376333,-4.826 q -1.608666,0 -2.709333,1.03717 -1.0795,1.016 -1.227667,2.667 h 7.895167 q -0.148167,-1.651 -1.248833,-2.667 -1.0795,-1.03717 -2.709334,-1.03717 z" />
      <path
         id="path18"
         style="font-style:normal;font-variant:normal;font-weight:normal;font-stretch:normal;font-size:21.16666603px;font-family:Montserrat;-inkscape-font-specification:'Montserrat, Normal';font-variant-ligatures:normal;font-variant-caps:normal;font-variant-numeric:normal;font-feature-settings:normal;text-align:start;writing-mode:lr-tb;text-anchor:start;stroke-width:0.26458332"
         d="m 100.11914,137.49405 -3.534836,-4.65667 -3.556,4.65667 h -1.693333 l 4.402666,-5.715 -4.191,-5.41867 h 1.693334 l 3.344333,4.36034 3.344333,-4.36034 h 1.651003 l -4.191003,5.41867 4.445003,5.715 z" />
      <path
         id="path20"
         style="font-style:normal;font-variant:normal;font-weight:normal;font-stretch:normal;font-size:21.16666603px;font-family:Montserrat;-inkscape-font-specification:'Montserrat, Normal';font-variant-ligatures:normal;font-variant-caps:normal;font-variant-numeric:normal;font-feature-settings:normal;text-align:start;writing-mode:lr-tb;text-anchor:start;stroke-width:0.26458332"
         d="m 110.1776,136.81672 q -0.42333,0.381 -1.05833,0.59266 -0.61383,0.1905 -1.29117,0.1905 -1.56633,0 -2.413,-0.84666 -0.84666,-0.84667 -0.84666,-2.39184 v -6.731 h -1.98967 v -1.27 h 1.98967 v -2.43416 h 1.50283 v 2.43416 h 3.38667 v 1.27 h -3.38667 v 6.64634 q 0,0.99483 0.48683,1.524 0.508,0.508 1.43934,0.508 0.46566,0 0.889,-0.14817 0.4445,-0.14817 0.762,-0.42333 z" />
    </g>
  </g>
</svg>
