<svg
 xmlns="http://www.w3.org/2000/svg"
 xmlns:xlink="http://www.w3.org/1999/xlink"
 width="13px" height="13px" viewBox="0 0 13 13">
<path fill-rule="evenodd"  fill="rgb(0, 0, 0)"
 d="M8.220,6.498 L12.871,1.846 C13.030,1.689 13.030,1.431 12.871,1.273 L11.724,0.126 C11.644,0.046 11.541,0.007 11.437,0.007 C11.333,0.007 11.229,0.046 11.150,0.126 L6.499,4.777 L1.849,0.126 C1.690,-0.033 1.433,-0.033 1.275,0.126 L0.128,1.273 C0.048,1.352 0.009,1.456 0.009,1.560 C0.009,1.664 0.048,1.767 0.128,1.846 L4.778,6.498 L0.128,11.148 C-0.031,11.306 -0.031,11.563 0.128,11.722 L1.275,12.869 C1.354,12.948 1.458,12.988 1.562,12.988 C1.665,12.988 1.769,12.948 1.849,12.869 L6.499,8.219 L11.150,12.869 C11.309,13.027 11.565,13.027 11.724,12.869 L12.871,11.722 C12.950,11.643 12.990,11.539 12.990,11.435 C12.990,11.332 12.950,11.227 12.871,11.148 L8.220,6.498 Z"/>
</svg>
