<?xml version="1.0" encoding="UTF-8" standalone="no"?>
<svg
   xmlns:dc="http://purl.org/dc/elements/1.1/"
   xmlns:cc="http://creativecommons.org/ns#"
   xmlns:rdf="http://www.w3.org/1999/02/22-rdf-syntax-ns#"
   xmlns:svg="http://www.w3.org/2000/svg"
   xmlns="http://www.w3.org/2000/svg"
   id="svg8"
   version="1.1"
   viewBox="0 0 345.97805 50.060581"
   height="50.060581mm"
   width="345.97806mm">
  <defs
     id="defs2" />
  <metadata
     id="metadata5">
    <rdf:RDF>
      <cc:Work
         rdf:about="">
        <dc:format>image/svg+xml</dc:format>
        <dc:type
           rdf:resource="http://purl.org/dc/dcmitype/StillImage" />
        <dc:title></dc:title>
      </cc:Work>
    </rdf:RDF>
  </metadata>
  <g
     transform="translate(-99.550589,-90.080128)"
     id="layer1">
    <g
       id="text817"
       style="font-style:normal;font-weight:normal;font-size:10.58333302px;line-height:1.25;font-family:sans-serif;letter-spacing:0px;word-spacing:0px;fill:#000000;fill-opacity:1;stroke:none;stroke-width:0.26458332" />
    <g
       id="text825"
       style="font-style:normal;font-weight:normal;font-size:10.58333302px;line-height:1.25;font-family:sans-serif;letter-spacing:0px;word-spacing:0px;fill:#000000;fill-opacity:1;stroke:none;stroke-width:0.26458332" />
    <g
       id="text829"
       style="font-style:normal;font-weight:normal;font-size:10.58333302px;line-height:1.25;font-family:sans-serif;letter-spacing:0px;word-spacing:0px;fill:#000000;fill-opacity:1;stroke:none;stroke-width:0.26458332" />
    <g
       id="text833"
       style="font-style:normal;font-weight:normal;font-size:10.58333302px;line-height:1.25;font-family:sans-serif;letter-spacing:0px;word-spacing:0px;fill:#000000;fill-opacity:1;stroke:none;stroke-width:0.26458332"
       aria-label="BOARDS">
      <path
         id="path905"
         style="font-style:normal;font-variant:normal;font-weight:bold;font-stretch:normal;font-size:69.14444733px;font-family:Montserrat;-inkscape-font-specification:'Montserrat, Bold';font-variant-ligatures:normal;font-variant-caps:normal;font-variant-numeric:normal;font-feature-settings:normal;text-align:start;writing-mode:lr-tb;text-anchor:start;fill:#000000;fill-opacity:0.03137255;stroke-width:0.26458332"
         d="m 135.09083,114.1424 q 4.14867,1.31374 6.49958,4.42524 2.35091,3.04236 2.35091,7.53674 0,6.36129 -4.9784,9.81852 -4.90925,3.38807 -14.38204,3.38807 H 99.550589 V 90.909861 h 23.647401 q 8.85049,0 13.55231,3.388078 4.77097,3.388078 4.77097,9.196211 0,3.52637 -1.72861,6.29215 -1.65947,2.76577 -4.70183,4.3561 z M 110.68284,99.345484 v 11.408836 h 11.13226 q 4.14867,0 6.29215,-1.45204 2.14347,-1.45203 2.14347,-4.28695 0,-2.83492 -2.14347,-4.21781 -2.14348,-1.452036 -6.29215,-1.452036 z m 13.06831,31.529866 q 4.42524,0 6.63786,-1.45203 2.28177,-1.45204 2.28177,-4.49439 0,-6.01557 -8.91963,-6.01557 h -13.06831 v 11.96199 z" />
      <path
         id="path907"
         style="font-style:normal;font-variant:normal;font-weight:bold;font-stretch:normal;font-size:69.14444733px;font-family:Montserrat;-inkscape-font-specification:'Montserrat, Bold';font-variant-ligatures:normal;font-variant-caps:normal;font-variant-numeric:normal;font-feature-settings:normal;text-align:start;writing-mode:lr-tb;text-anchor:start;fill:#000000;fill-opacity:0.03137255;stroke-width:0.26458332"
         d="m 183.41282,140.14071 q -7.53674,0 -13.62146,-3.24979 -6.01556,-3.24979 -9.47278,-8.91964 -3.38808,-5.73898 -3.38808,-12.86086 0,-7.12188 3.38808,-12.79173 3.45722,-5.738984 9.47278,-8.988773 6.08472,-3.249789 13.62146,-3.249789 7.53675,0 13.55231,3.249789 6.01557,3.249789 9.47279,8.988773 3.45722,5.66985 3.45722,12.79173 0,7.12188 -3.45722,12.86086 -3.45722,5.66985 -9.47279,8.91964 -6.01556,3.24979 -13.55231,3.24979 z m 0,-9.54194 q 4.28696,0 7.74418,-1.93604 3.45722,-2.00519 5.39327,-5.53156 2.00518,-3.52636 2.00518,-8.02075 0,-4.49439 -2.00518,-8.02076 -1.93605,-3.52637 -5.39327,-5.46241 -3.45722,-2.005189 -7.74418,-2.005189 -4.28696,0 -7.74418,2.005189 -3.45722,1.93604 -5.46241,5.46241 -1.93604,3.52637 -1.93604,8.02076 0,4.49439 1.93604,8.02075 2.00519,3.52637 5.46241,5.53156 3.45722,1.93604 7.74418,1.93604 z" />
      <path
         id="path909"
         style="font-style:normal;font-variant:normal;font-weight:bold;font-stretch:normal;font-size:69.14444733px;font-family:Montserrat;-inkscape-font-specification:'Montserrat, Bold';font-variant-ligatures:normal;font-variant-caps:normal;font-variant-numeric:normal;font-feature-settings:normal;text-align:start;writing-mode:lr-tb;text-anchor:start;fill:#000000;fill-opacity:0.03137255;stroke-width:0.26458332"
         d="m 257.67262,128.93931 h -22.47195 l -4.28695,10.37166 H 219.43574 L 241.0088,90.909861 h 11.06312 l 21.64221,48.401109 h -11.75456 z m -3.52637,-8.50477 -7.67503,-18.53071 -7.67504,18.53071 z" />
      <path
         id="path911"
         style="font-style:normal;font-variant:normal;font-weight:bold;font-stretch:normal;font-size:69.14444733px;font-family:Montserrat;-inkscape-font-specification:'Montserrat, Bold';font-variant-ligatures:normal;font-variant-caps:normal;font-variant-numeric:normal;font-feature-settings:normal;text-align:start;writing-mode:lr-tb;text-anchor:start;fill:#000000;fill-opacity:0.03137255;stroke-width:0.26458332"
         d="m 317.05771,139.31097 -9.3345,-13.48316 h -0.55315 -9.74937 v 13.48316 h -11.2014 V 90.909861 h 20.95077 q 6.43043,0 11.13225,2.143478 4.77097,2.143478 7.32932,6.084711 2.55834,3.94123 2.55834,9.3345 0,5.39327 -2.62749,9.3345 -2.55834,3.87209 -7.32931,5.94642 l 10.85568,15.5575 z m -0.20743,-30.83842 q 0,-4.07952 -2.62749,-6.223 -2.62749,-2.21262 -7.67503,-2.21262 h -9.12707 v 16.87124 h 9.12707 q 5.04754,0 7.67503,-2.21262 2.62749,-2.21262 2.62749,-6.223 z" />
      <path
         id="path913"
         style="font-style:normal;font-variant:normal;font-weight:bold;font-stretch:normal;font-size:69.14444733px;font-family:Montserrat;-inkscape-font-specification:'Montserrat, Bold';font-variant-ligatures:normal;font-variant-caps:normal;font-variant-numeric:normal;font-feature-settings:normal;text-align:start;writing-mode:lr-tb;text-anchor:start;fill:#000000;fill-opacity:0.03137255;stroke-width:0.26458332"
         d="m 344.4808,90.909861 h 21.98793 q 7.88247,0 13.89803,3.042356 6.08471,2.973211 9.40365,8.435623 3.38808,5.46241 3.38808,12.72258 0,7.26016 -3.38808,12.72258 -3.31894,5.46241 -9.40365,8.50476 -6.01556,2.97321 -13.89803,2.97321 H 344.4808 Z m 21.43477,39.204899 q 7.26017,0 11.54713,-4.01038 4.3561,-4.07952 4.3561,-10.99396 0,-6.91445 -4.3561,-10.92483 -4.28696,-4.07952 -11.54713,-4.07952 H 355.6822 v 30.00869 z" />
      <path
         id="path915"
         style="font-style:normal;font-variant:normal;font-weight:bold;font-stretch:normal;font-size:69.14444733px;font-family:Montserrat;-inkscape-font-specification:'Montserrat, Bold';font-variant-ligatures:normal;font-variant-caps:normal;font-variant-numeric:normal;font-feature-settings:normal;text-align:start;writing-mode:lr-tb;text-anchor:start;fill:#000000;fill-opacity:0.03137255;stroke-width:0.26458332"
         d="m 424.99275,140.14071 q -5.73899,0 -11.13225,-1.52118 -5.32413,-1.59032 -8.57392,-4.07952 l 3.80295,-8.43563 q 3.1115,2.28177 7.39846,3.66466 4.28695,1.38289 8.57391,1.38289 4.77096,0 7.05273,-1.38289 2.28177,-1.45203 2.28177,-3.80294 0,-1.72862 -1.38289,-2.83493 -1.31375,-1.17545 -3.45722,-1.8669 -2.07434,-0.69144 -5.66985,-1.52117 -5.53155,-1.31375 -9.05792,-2.62749 -3.52637,-1.31375 -6.08471,-4.21781 -2.4892,-2.90407 -2.4892,-7.74418 0,-4.21781 2.28176,-7.605892 2.28177,-3.457222 6.8453,-5.462411 4.63268,-2.005189 11.27055,-2.005189 4.63268,0 9.05792,1.106311 4.42525,1.106311 7.74418,3.180644 l -3.45722,8.504767 q -6.70701,-3.802944 -13.41403,-3.802944 -4.70182,0 -6.98358,1.521174 -2.21263,1.52118 -2.21263,4.01038 0,2.4892 2.55835,3.7338 2.62749,1.17546 7.95161,2.35091 5.53155,1.31375 9.05792,2.62749 3.52637,1.31375 6.01557,4.14867 2.55834,2.83492 2.55834,7.67503 0,4.14867 -2.35091,7.60589 -2.28176,3.38808 -6.91444,5.39327 -4.63268,2.00519 -11.27055,2.00519 z" />
    </g>
  </g>
</svg>
