<svg xmlns="http://www.w3.org/2000/svg" viewBox="0 0 345.978 50.061" height="189.205" width="1307.634"><g letter-spacing="0" word-spacing="0" stroke-width=".265"><g style="line-height:1.25" aria-label="BOARDS" font-weight="700" font-size="69.144" font-family="Montserrat" fill-opacity=".031"><path style="-inkscape-font-specification:'Montserrat, Bold';font-variant-ligatures:normal;font-variant-caps:normal;font-variant-numeric:normal;font-feature-settings:normal;text-align:start" d="M35.54 24.062q4.149 1.314 6.5 4.426 2.35 3.042 2.35 7.536 0 6.362-4.978 9.819-4.909 3.388-14.382 3.388H0V.83h23.647q8.85 0 13.553 3.388 4.77 3.388 4.77 9.196 0 3.526-1.728 6.292-1.66 2.766-4.702 4.356zM11.132 9.265v11.41h11.133q4.148 0 6.292-1.453Q30.7 17.77 30.7 14.935t-2.143-4.218q-2.144-1.452-6.292-1.452zm13.069 31.53q4.425 0 6.637-1.452 2.282-1.452 2.282-4.494 0-6.016-8.92-6.016H11.133v11.962zM83.862 50.06q-7.537 0-13.621-3.25-6.016-3.249-9.473-8.919-3.388-5.739-3.388-12.86 0-7.123 3.388-12.792 3.457-5.74 9.473-8.99Q76.325 0 83.862 0 91.4 0 97.415 3.25q6.015 3.25 9.472 8.989 3.458 5.67 3.458 12.791 0 7.122-3.458 12.861-3.457 5.67-9.472 8.92-6.016 3.25-13.553 3.25zm0-9.541q4.287 0 7.744-1.936Q95.064 36.577 97 33.05q2.005-3.526 2.005-8.02 0-4.495-2.005-8.021-1.936-3.527-5.394-5.463-3.457-2.005-7.744-2.005t-7.744 2.005q-3.457 1.936-5.462 5.463-1.936 3.526-1.936 8.02 0 4.495 1.936 8.021 2.005 3.526 5.462 5.532 3.457 1.936 7.744 1.936zM158.122 38.86H135.65l-4.287 10.37h-11.478L141.458.83h11.063l21.643 48.4h-11.755zm-3.526-8.506l-7.675-18.53-7.675 18.53zM217.507 49.23l-9.334-13.482H197.87V49.23H186.67V.83h20.95q6.43 0 11.133 2.143 4.77 2.144 7.329 6.085 2.558 3.941 2.558 9.334 0 5.394-2.627 9.335-2.558 3.872-7.33 5.946l10.856 15.558zm-.207-30.838q0-4.08-2.628-6.223-2.627-2.212-7.675-2.212h-9.127v16.871h9.127q5.048 0 7.675-2.213 2.628-2.212 2.628-6.223zM244.93.83h21.988q7.883 0 13.898 3.042 6.085 2.973 9.404 8.436 3.388 5.462 3.388 12.722t-3.388 12.723q-3.32 5.462-9.404 8.505-6.015 2.973-13.898 2.973H244.93zm21.435 39.205q7.26 0 11.547-4.01 4.356-4.08 4.356-10.995 0-6.914-4.356-10.925-4.287-4.08-11.547-4.08h-10.233v30.01zM325.442 50.06q-5.739 0-11.132-1.52-5.324-1.59-8.574-4.08l3.803-8.436q3.111 2.282 7.398 3.665 4.287 1.383 8.574 1.383 4.771 0 7.053-1.383 2.282-1.452 2.282-3.803 0-1.729-1.383-2.835-1.314-1.175-3.457-1.867-2.075-.691-5.67-1.521-5.532-1.314-9.058-2.628-3.526-1.313-6.085-4.217-2.489-2.904-2.489-7.745 0-4.217 2.282-7.605 2.282-3.458 6.845-5.463Q320.464 0 327.101 0q4.633 0 9.059 1.106 4.425 1.107 7.744 3.181l-3.457 8.505q-6.707-3.803-13.415-3.803-4.701 0-6.983 1.521-2.213 1.521-2.213 4.01 0 2.49 2.559 3.734 2.627 1.176 7.951 2.351 5.532 1.314 9.058 2.628 3.527 1.313 6.016 4.148 2.558 2.835 2.558 7.675 0 4.149-2.35 7.606-2.283 3.388-6.915 5.393-4.633 2.006-11.27 2.006z"/></g></g></svg>