<svg xmlns="http://www.w3.org/2000/svg" viewBox="0 0 214.757 22.987" height="86.88" width="811.68"><g style="line-height:1.25" aria-label="INSTAGRAM" font-weight="700" font-size="31.75" font-family="Montserrat" letter-spacing="2.381" word-spacing="0" stroke-width=".265" fill-opacity=".031"><path style="-inkscape-font-specification:'Montserrat, Bold';font-variant-ligatures:normal;font-variant-caps:normal;font-variant-numeric:normal;font-feature-settings:normal;text-align:start" d="M0 .381h5.144v22.225H0zM33.183.381v22.225H28.96L17.88 9.112v13.494H12.8V.381h4.254l11.049 13.494V.38zM48.156 22.987q-2.635 0-5.112-.698-2.445-.73-3.937-1.874l1.746-3.873q1.43 1.048 3.398 1.683 1.968.635 3.937.635 2.19 0 3.238-.635 1.048-.667 1.048-1.747 0-.793-.635-1.301-.603-.54-1.588-.858-.952-.317-2.603-.698-2.54-.603-4.16-1.207-1.619-.603-2.793-1.936-1.143-1.334-1.143-3.556 0-1.937 1.047-3.493 1.048-1.587 3.144-2.508Q45.87 0 48.918 0q2.127 0 4.16.508 2.031.508 3.555 1.46l-1.587 3.906q-3.08-1.746-6.16-1.746-2.159 0-3.207.698-1.016.699-1.016 1.842 0 1.143 1.175 1.714 1.207.54 3.651 1.08 2.54.603 4.16 1.206 1.619.603 2.762 1.905 1.175 1.302 1.175 3.524 0 1.905-1.08 3.493-1.048 1.556-3.175 2.476-2.127.921-5.175.921zM67.806 4.572h-7.112V.381h19.368v4.191H72.95v18.034h-5.144zM98.7 17.844H88.38l-1.968 4.762h-5.27L91.047.381h5.08l9.938 22.225h-5.398zm-1.62-3.906L93.557 5.43l-3.524 8.51zM125.46 11.144h4.7v9.017q-1.81 1.365-4.191 2.096-2.382.73-4.795.73-3.46 0-6.223-1.46-2.762-1.493-4.35-4.096-1.555-2.635-1.555-5.937 0-3.302 1.556-5.906 1.587-2.635 4.381-4.096Q117.777 0 121.27 0q2.92 0 5.302.984 2.381.985 4 2.858L127.27 6.89q-2.38-2.508-5.746-2.508-2.128 0-3.779.889-1.65.889-2.571 2.508-.921 1.619-.921 3.715 0 2.063.92 3.683.921 1.619 2.54 2.54 1.652.889 3.747.889 2.223 0 4-.953zM151.48 22.606l-4.287-6.191h-4.731v6.191h-5.143V.381h9.62q2.953 0 5.112.984 2.19.985 3.365 2.794 1.175 1.81 1.175 4.287 0 2.476-1.206 4.286-1.175 1.778-3.366 2.73l4.985 7.144zm-.096-14.16q0-1.874-1.207-2.858-1.206-1.016-3.524-1.016h-4.19v7.747h4.19q2.318 0 3.524-1.016 1.207-1.016 1.207-2.857zM177.653 17.844h-10.319l-1.968 4.762h-5.27L170 .381h5.08l9.938 22.225h-5.397zm-1.62-3.906L172.51 5.43l-3.525 8.51zM209.931 22.606l-.032-13.335-6.54 10.986h-2.318l-6.509-10.7v13.049h-4.826V.381h4.255l8.318 13.811L210.471.381h4.223l.063 22.225z"/></g></svg>