<?xml version="1.0" encoding="UTF-8" standalone="no"?>
<svg
   xmlns:dc="http://purl.org/dc/elements/1.1/"
   xmlns:cc="http://creativecommons.org/ns#"
   xmlns:rdf="http://www.w3.org/1999/02/22-rdf-syntax-ns#"
   xmlns:svg="http://www.w3.org/2000/svg"
   xmlns="http://www.w3.org/2000/svg"
   id="svg8"
   version="1.1"
   viewBox="0 0 214.757 22.987"
   height="22.987mm"
   width="214.757mm">
  <defs
     id="defs2" />
  <metadata
     id="metadata5">
    <rdf:RDF>
      <cc:Work
         rdf:about="">
        <dc:format>image/svg+xml</dc:format>
        <dc:type
           rdf:resource="http://purl.org/dc/dcmitype/StillImage" />
        <dc:title></dc:title>
      </cc:Work>
    </rdf:RDF>
  </metadata>
  <g
     transform="translate(-49.504295,-108.08448)"
     id="layer1">
    <g
       id="text817"
       style="font-style:normal;font-weight:normal;font-size:10.58333302px;line-height:1.25;font-family:sans-serif;letter-spacing:0px;word-spacing:0px;fill:#000000;fill-opacity:1;stroke:none;stroke-width:0.26458332"
       aria-label="INSTAGRAM">
      <path
         id="path819"
         style="font-style:normal;font-variant:normal;font-weight:bold;font-stretch:normal;font-size:31.75px;font-family:Montserrat;-inkscape-font-specification:'Montserrat, Bold';font-variant-ligatures:normal;font-variant-caps:normal;font-variant-numeric:normal;font-feature-settings:normal;text-align:start;letter-spacing:2.3812499px;writing-mode:lr-tb;text-anchor:start;fill:#000000;fill-opacity:0.03137255;stroke-width:0.26458332"
         d="m 49.504295,108.46548 h 5.1435 v 22.225 h -5.1435 z" />
      <path
         id="path821"
         style="font-style:normal;font-variant:normal;font-weight:bold;font-stretch:normal;font-size:31.75px;font-family:Montserrat;-inkscape-font-specification:'Montserrat, Bold';font-variant-ligatures:normal;font-variant-caps:normal;font-variant-numeric:normal;font-feature-settings:normal;text-align:start;letter-spacing:2.3812499px;writing-mode:lr-tb;text-anchor:start;fill:#000000;fill-opacity:0.03137255;stroke-width:0.26458332"
         d="m 82.687014,108.46548 v 22.225 h -4.22275 l -11.08075,-13.49375 v 13.49375 h -5.08 v -22.225 h 4.2545 l 11.049,13.49375 v -13.49375 z" />
      <path
         id="path823"
         style="font-style:normal;font-variant:normal;font-weight:bold;font-stretch:normal;font-size:31.75px;font-family:Montserrat;-inkscape-font-specification:'Montserrat, Bold';font-variant-ligatures:normal;font-variant-caps:normal;font-variant-numeric:normal;font-feature-settings:normal;text-align:start;letter-spacing:2.3812499px;writing-mode:lr-tb;text-anchor:start;fill:#000000;fill-opacity:0.03137255;stroke-width:0.26458332"
         d="m 97.660116,131.07148 q -2.63525,0 -5.11175,-0.6985 -2.44475,-0.73025 -3.937,-1.87325 l 1.74625,-3.8735 q 1.42875,1.04775 3.39725,1.68275 1.9685,0.635 3.937,0.635 2.19075,0 3.238504,-0.635 1.04775,-0.66675 1.04775,-1.74625 0,-0.79375 -0.635,-1.30175 -0.60325,-0.53975 -1.587504,-0.85725 -0.9525,-0.3175 -2.6035,-0.6985 -2.54,-0.60325 -4.15925,-1.2065 -1.61925,-0.60325 -2.794,-1.93675 -1.143,-1.3335 -1.143,-3.556 0,-1.93675 1.04775,-3.4925 1.04775,-1.5875 3.14325,-2.50825 2.12725,-0.92075 5.17525,-0.92075 2.127254,0 4.159254,0.508 2.032,0.508 3.556,1.4605 l -1.5875,3.90525 q -3.07975,-1.74625 -6.159504,-1.74625 -2.159,0 -3.20675,0.6985 -1.016,0.6985 -1.016,1.8415 0,1.143 1.17475,1.7145 1.2065,0.53975 3.65125,1.0795 2.540004,0.60325 4.159254,1.2065 1.61925,0.60325 2.76225,1.905 1.17475,1.30175 1.17475,3.52425 0,1.905 -1.0795,3.4925 -1.04775,1.55575 -3.175,2.4765 -2.12725,0.92075 -5.175254,0.92075 z" />
      <path
         id="path825"
         style="font-style:normal;font-variant:normal;font-weight:bold;font-stretch:normal;font-size:31.75px;font-family:Montserrat;-inkscape-font-specification:'Montserrat, Bold';font-variant-ligatures:normal;font-variant-caps:normal;font-variant-numeric:normal;font-feature-settings:normal;text-align:start;letter-spacing:2.3812499px;writing-mode:lr-tb;text-anchor:start;fill:#000000;fill-opacity:0.03137255;stroke-width:0.26458332"
         d="m 117.31039,112.65648 h -7.112 v -4.191 h 19.3675 v 4.191 h -7.112 v 18.034 h -5.1435 z" />
      <path
         id="path827"
         style="font-style:normal;font-variant:normal;font-weight:bold;font-stretch:normal;font-size:31.75px;font-family:Montserrat;-inkscape-font-specification:'Montserrat, Bold';font-variant-ligatures:normal;font-variant-caps:normal;font-variant-numeric:normal;font-feature-settings:normal;text-align:start;letter-spacing:2.3812499px;writing-mode:lr-tb;text-anchor:start;fill:#000000;fill-opacity:0.03137255;stroke-width:0.26458332"
         d="m 148.20413,125.92798 h -10.31875 l -1.9685,4.7625 h -5.2705 l 9.906,-22.225 h 5.08 l 9.93775,22.225 h -5.3975 z m -1.61925,-3.90525 -3.52425,-8.509 -3.52425,8.509 z" />
      <path
         id="path829"
         style="font-style:normal;font-variant:normal;font-weight:bold;font-stretch:normal;font-size:31.75px;font-family:Montserrat;-inkscape-font-specification:'Montserrat, Bold';font-variant-ligatures:normal;font-variant-caps:normal;font-variant-numeric:normal;font-feature-settings:normal;text-align:start;letter-spacing:2.3812499px;writing-mode:lr-tb;text-anchor:start;fill:#000000;fill-opacity:0.03137255;stroke-width:0.26458332"
         d="m 174.96492,119.22873 h 4.699 v 9.017 q -1.80975,1.36525 -4.191,2.0955 -2.38125,0.73025 -4.79425,0.73025 -3.46075,0 -6.223,-1.4605 -2.76225,-1.49225 -4.34975,-4.09575 -1.55575,-2.63525 -1.55575,-5.93725 0,-3.302 1.55575,-5.9055 1.5875,-2.63525 4.3815,-4.09575 2.794,-1.49225 6.2865,-1.49225 2.921,0 5.30225,0.98425 2.38125,0.98425 4.0005,2.8575 l -3.302,3.048 q -2.38125,-2.50825 -5.74675,-2.50825 -2.12725,0 -3.77825,0.889 -1.651,0.889 -2.57175,2.50825 -0.92075,1.61925 -0.92075,3.71475 0,2.06375 0.92075,3.683 0.92075,1.61925 2.54,2.54 1.651,0.889 3.7465,0.889 2.2225,0 4.0005,-0.9525 z" />
      <path
         id="path831"
         style="font-style:normal;font-variant:normal;font-weight:bold;font-stretch:normal;font-size:31.75px;font-family:Montserrat;-inkscape-font-specification:'Montserrat, Bold';font-variant-ligatures:normal;font-variant-caps:normal;font-variant-numeric:normal;font-feature-settings:normal;text-align:start;letter-spacing:2.3812499px;writing-mode:lr-tb;text-anchor:start;fill:#000000;fill-opacity:0.03137255;stroke-width:0.26458332"
         d="m 200.98355,130.69048 -4.28625,-6.19125 h -0.254 -4.47675 v 6.19125 h -5.1435 v -22.225 h 9.62025 q 2.95275,0 5.11175,0.98425 2.19075,0.98425 3.3655,2.794 1.17475,1.80975 1.17475,4.28625 0,2.4765 -1.2065,4.28625 -1.17475,1.778 -3.3655,2.7305 l 4.98475,7.14375 z m -0.0953,-14.1605 q 0,-1.87325 -1.2065,-2.8575 -1.2065,-1.016 -3.52425,-1.016 h -4.191 v 7.747 h 4.191 q 2.31775,0 3.52425,-1.016 1.2065,-1.016 1.2065,-2.8575 z" />
      <path
         id="path833"
         style="font-style:normal;font-variant:normal;font-weight:bold;font-stretch:normal;font-size:31.75px;font-family:Montserrat;-inkscape-font-specification:'Montserrat, Bold';font-variant-ligatures:normal;font-variant-caps:normal;font-variant-numeric:normal;font-feature-settings:normal;text-align:start;letter-spacing:2.3812499px;writing-mode:lr-tb;text-anchor:start;fill:#000000;fill-opacity:0.03137255;stroke-width:0.26458332"
         d="M 227.15745,125.92798 H 216.8387 l -1.9685,4.7625 h -5.2705 l 9.906,-22.225 h 5.08 l 9.93775,22.225 h -5.3975 z m -1.61925,-3.90525 -3.52425,-8.509 -3.52425,8.509 z" />
      <path
         id="path835"
         style="font-style:normal;font-variant:normal;font-weight:bold;font-stretch:normal;font-size:31.75px;font-family:Montserrat;-inkscape-font-specification:'Montserrat, Bold';font-variant-ligatures:normal;font-variant-caps:normal;font-variant-numeric:normal;font-feature-settings:normal;text-align:start;letter-spacing:2.3812499px;writing-mode:lr-tb;text-anchor:start;fill:#000000;fill-opacity:0.03137255;stroke-width:0.26458332"
         d="m 259.4353,130.69048 -0.0317,-13.335 -6.5405,10.9855 h -2.31775 l -6.50875,-10.69975 v 13.04925 h -4.826 v -22.225 h 4.2545 l 8.3185,13.81125 8.1915,-13.81125 h 4.22275 l 0.0635,22.225 z" />
    </g>
  </g>
</svg>
