<?xml version="1.0" encoding="UTF-8" standalone="no"?>
<svg
   xmlns:osb="http://www.openswatchbook.org/uri/2009/osb"
   xmlns:dc="http://purl.org/dc/elements/1.1/"
   xmlns:cc="http://creativecommons.org/ns#"
   xmlns:rdf="http://www.w3.org/1999/02/22-rdf-syntax-ns#"
   xmlns:svg="http://www.w3.org/2000/svg"
   xmlns="http://www.w3.org/2000/svg"
   xmlns:xlink="http://www.w3.org/1999/xlink"
   id="svg8"
   version="1.1"
   viewBox="0 0 427.69356 50.060581"
   height="50.060581mm"
   width="427.69357mm">
  <defs
     id="defs2">
    <linearGradient
       osb:paint="solid"
       id="linearGradient2397">
      <stop
         id="stop2395"
         offset="0"
         style="stop-color:#000000;stop-opacity:1;" />
    </linearGradient>
    <linearGradient
       y2="115.11042"
       x2="445.52866"
       y1="115.11042"
       x1="99.550591"
       gradientUnits="userSpaceOnUse"
       id="linearGradient2401"
       xlink:href="#linearGradient2397" />
  </defs>
  <metadata
     id="metadata5">
    <rdf:RDF>
      <cc:Work
         rdf:about="">
        <dc:format>image/svg+xml</dc:format>
        <dc:type
           rdf:resource="http://purl.org/dc/dcmitype/StillImage" />
        <dc:title></dc:title>
      </cc:Work>
    </rdf:RDF>
  </metadata>
  <g
     transform="translate(-96.508233,-90.080128)"
     id="layer1">
    <text
       id="text817"
       y="133.69832"
       x="3.4745038"
       style="font-style:normal;font-weight:normal;font-size:10.58333302px;line-height:1.25;font-family:sans-serif;letter-spacing:0px;word-spacing:0px;fill:#000000;fill-opacity:1;stroke:none;stroke-width:0.26458332"
       xml:space="preserve"><tspan
         id="tspan819"
         style="stroke-width:0.26458332"
         y="143.06209"
         x="3.4745038" /></text>
    <text
       id="text825"
       y="106.97137"
       x="74.835464"
       style="font-style:normal;font-weight:normal;font-size:10.58333302px;line-height:1.25;font-family:sans-serif;letter-spacing:0px;word-spacing:0px;fill:#000000;fill-opacity:1;stroke:none;stroke-width:0.26458332"
       xml:space="preserve"><tspan
         style="opacity:1;fill:#000000;fill-opacity:0.03137255;stroke-width:0.26458332"
         y="116.33514"
         x="74.835464"
         id="tspan823" /></text>
    <text
       id="text829"
       y="144.65637"
       x="79.111778"
       style="font-style:normal;font-weight:normal;font-size:10.58333302px;line-height:1.25;font-family:sans-serif;letter-spacing:0px;word-spacing:0px;fill:#000000;fill-opacity:1;stroke:none;stroke-width:0.26458332"
       xml:space="preserve"><tspan
         style="stroke-width:0.26458332"
         y="154.02014"
         x="79.111778"
         id="tspan827" /></text>
    <g
       id="text833"
       style="font-style:normal;font-weight:normal;font-size:10.58333302px;line-height:1.25;font-family:sans-serif;letter-spacing:0px;word-spacing:0px;fill:url(#linearGradient2401);fill-opacity:1;stroke:none;stroke-width:0.26458332"
       aria-label="OUR TEAM">
      <path
         id="path2403"
         style="font-style:normal;font-variant:normal;font-weight:bold;font-stretch:normal;font-size:69.14444733px;font-family:Montserrat;-inkscape-font-specification:'Montserrat, Bold';font-variant-ligatures:normal;font-variant-caps:normal;font-variant-numeric:normal;font-feature-settings:normal;text-align:start;letter-spacing:0px;writing-mode:lr-tb;text-anchor:start;fill:url(#linearGradient2401);fill-opacity:0.03137255;stroke-width:0.26458332"
         d="m 122.99056,140.14071 q -7.53675,0 -13.62146,-3.24979 -6.01557,-3.24979 -9.472789,-8.91964 -3.388078,-5.73898 -3.388078,-12.86086 0,-7.12188 3.388078,-12.79173 3.457219,-5.738984 9.472789,-8.988773 6.08471,-3.249789 13.62146,-3.249789 7.53674,0 13.55231,3.249789 6.01557,3.249789 9.47279,8.988773 3.45722,5.66985 3.45722,12.79173 0,7.12188 -3.45722,12.86086 -3.45722,5.66985 -9.47279,8.91964 -6.01557,3.24979 -13.55231,3.24979 z m 0,-9.54194 q 4.28695,0 7.74417,-1.93604 3.45723,-2.00519 5.39327,-5.53156 2.00519,-3.52636 2.00519,-8.02075 0,-4.49439 -2.00519,-8.02076 -1.93604,-3.52637 -5.39327,-5.46241 -3.45722,-2.005189 -7.74417,-2.005189 -4.28696,0 -7.74418,2.005189 -3.45722,1.93604 -5.46241,5.46241 -1.93605,3.52637 -1.93605,8.02076 0,4.49439 1.93605,8.02075 2.00519,3.52637 5.46241,5.53156 3.45722,1.93604 7.74418,1.93604 z" />
      <path
         id="path2405"
         style="font-style:normal;font-variant:normal;font-weight:bold;font-stretch:normal;font-size:69.14444733px;font-family:Montserrat;-inkscape-font-specification:'Montserrat, Bold';font-variant-ligatures:normal;font-variant-caps:normal;font-variant-numeric:normal;font-feature-settings:normal;text-align:start;letter-spacing:0px;writing-mode:lr-tb;text-anchor:start;fill:url(#linearGradient2401);fill-opacity:0.03137255;stroke-width:0.26458332"
         d="m 186.87868,140.14071 q -10.37166,0 -16.1798,-5.73899 -5.73898,-5.73899 -5.73898,-16.38724 V 90.909861 h 11.2014 v 26.689759 q 0,12.99915 10.78653,12.99915 5.25498,0 8.02076,-3.1115 2.76577,-3.18064 2.76577,-9.88765 V 90.909861 h 11.06311 v 27.104619 q 0,10.64825 -5.80813,16.38724 -5.73899,5.73899 -16.11066,5.73899 z" />
      <path
         id="path2407"
         style="font-style:normal;font-variant:normal;font-weight:bold;font-stretch:normal;font-size:69.14444733px;font-family:Montserrat;-inkscape-font-specification:'Montserrat, Bold';font-variant-ligatures:normal;font-variant-caps:normal;font-variant-numeric:normal;font-feature-settings:normal;text-align:start;letter-spacing:0px;writing-mode:lr-tb;text-anchor:start;fill:url(#linearGradient2401);fill-opacity:0.03137255;stroke-width:0.26458332"
         d="m 258.12098,139.31097 -9.3345,-13.48316 h -0.55316 -9.74937 v 13.48316 h -11.2014 V 90.909861 h 20.95077 q 6.43043,0 11.13226,2.143478 4.77096,2.143478 7.32931,6.084711 2.55834,3.94123 2.55834,9.3345 0,5.39327 -2.62749,9.3345 -2.55834,3.87209 -7.32931,5.94642 l 10.85568,15.5575 z m -0.20744,-30.83842 q 0,-4.07952 -2.62749,-6.223 -2.62748,-2.21262 -7.67503,-2.21262 h -9.12707 v 16.87124 h 9.12707 q 5.04755,0 7.67503,-2.21262 2.62749,-2.21262 2.62749,-6.223 z" />
      <path
         id="path2409"
         style="font-style:normal;font-variant:normal;font-weight:bold;font-stretch:normal;font-size:69.14444733px;font-family:Montserrat;-inkscape-font-specification:'Montserrat, Bold';font-variant-ligatures:normal;font-variant-caps:normal;font-variant-numeric:normal;font-feature-settings:normal;text-align:start;letter-spacing:0px;writing-mode:lr-tb;text-anchor:start;fill:url(#linearGradient2401);fill-opacity:0.03137255;stroke-width:0.26458332"
         d="m 315.15193,100.03693 h -15.48836 v -9.127069 h 42.17811 v 9.127069 h -15.48835 v 39.27404 h -11.2014 z" />
      <path
         id="path2411"
         style="font-style:normal;font-variant:normal;font-weight:bold;font-stretch:normal;font-size:69.14444733px;font-family:Montserrat;-inkscape-font-specification:'Montserrat, Bold';font-variant-ligatures:normal;font-variant-caps:normal;font-variant-numeric:normal;font-feature-settings:normal;text-align:start;letter-spacing:0px;writing-mode:lr-tb;text-anchor:start;fill:url(#linearGradient2401);fill-opacity:0.03137255;stroke-width:0.26458332"
         d="m 392.7609,130.3222 v 8.98877 H 355.28461 V 90.909861 h 36.57742 v 8.988778 H 366.41687 V 110.4086 h 22.47194 v 8.7122 h -22.47194 v 11.2014 z" />
      <path
         id="path2413"
         style="font-style:normal;font-variant:normal;font-weight:bold;font-stretch:normal;font-size:69.14444733px;font-family:Montserrat;-inkscape-font-specification:'Montserrat, Bold';font-variant-ligatures:normal;font-variant-caps:normal;font-variant-numeric:normal;font-feature-settings:normal;text-align:start;letter-spacing:0px;writing-mode:lr-tb;text-anchor:start;fill:url(#linearGradient2401);fill-opacity:0.03137255;stroke-width:0.26458332"
         d="m 441.10019,128.93931 h -22.47195 l -4.28695,10.37166 h -11.47798 l 21.57307,-48.401109 h 11.06311 l 21.64221,48.401109 h -11.75455 z m -3.52637,-8.50477 -7.67503,-18.53071 -7.67503,18.53071 z" />
      <path
         id="path2415"
         style="font-style:normal;font-variant:normal;font-weight:bold;font-stretch:normal;font-size:69.14444733px;font-family:Montserrat;-inkscape-font-specification:'Montserrat, Bold';font-variant-ligatures:normal;font-variant-caps:normal;font-variant-numeric:normal;font-feature-settings:normal;text-align:start;letter-spacing:0px;writing-mode:lr-tb;text-anchor:start;fill:url(#linearGradient2401);fill-opacity:0.03137255;stroke-width:0.26458332"
         d="m 513.69185,139.31097 -0.0691,-29.04066 -14.24376,23.92398 h -5.04754 L 480.1568,110.89261 v 28.41836 H 469.64684 V 90.909861 h 9.26536 l 18.11584,30.077839 17.83927,-30.077839 h 9.19621 l 0.13829,48.401109 z" />
    </g>
  </g>
</svg>
