<svg xmlns:osb="http://www.openswatchbook.org/uri/2009/osb" xmlns="http://www.w3.org/2000/svg" xmlns:xlink="http://www.w3.org/1999/xlink" viewBox="0 0 427.694 50.061" height="189.205" width="1616.48"><defs><linearGradient osb:paint="solid" id="a"><stop offset="0"/></linearGradient><linearGradient y2="115.11" x2="445.529" y1="115.11" x1="99.551" gradientUnits="userSpaceOnUse" id="b" xlink:href="#a"/></defs><g letter-spacing="0" word-spacing="0" stroke-width=".265"><text y="133.698" x="3.475" style="line-height:1.25" font-weight="400" font-size="10.583" font-family="sans-serif" transform="translate(-96.508 -90.08)"/><text y="106.971" x="74.835" style="line-height:1.25" font-weight="400" font-size="10.583" font-family="sans-serif" transform="translate(-96.508 -90.08)"/><text y="144.656" x="79.112" style="line-height:1.25" font-weight="400" font-size="10.583" font-family="sans-serif" transform="translate(-96.508 -90.08)"/><g style="line-height:1.25" aria-label="OUR TEAM" font-weight="700" font-size="69.144" font-family="Montserrat" fill="url(#b)" fill-opacity=".031" transform="translate(-96.508 -90.08)"><path style="-inkscape-font-specification:'Montserrat, Bold';font-variant-ligatures:normal;font-variant-caps:normal;font-variant-numeric:normal;font-feature-settings:normal;text-align:start" d="M122.99 140.14q-7.536 0-13.62-3.25-6.016-3.249-9.474-8.919-3.388-5.739-3.388-12.86 0-7.122 3.388-12.792 3.458-5.74 9.473-8.99 6.085-3.249 13.622-3.249 7.536 0 13.552 3.25 6.015 3.25 9.473 8.989 3.457 5.67 3.457 12.791 0 7.122-3.457 12.861-3.458 5.67-9.473 8.92-6.016 3.25-13.552 3.25zm0-9.541q4.288 0 7.745-1.936 3.457-2.005 5.393-5.532 2.005-3.526 2.005-8.02 0-4.495-2.005-8.021-1.936-3.527-5.393-5.463-3.457-2.005-7.744-2.005t-7.745 2.005q-3.457 1.936-5.462 5.463-1.936 3.526-1.936 8.02 0 4.495 1.936 8.021 2.005 3.527 5.462 5.532 3.458 1.936 7.745 1.936zM186.879 140.14q-10.372 0-16.18-5.738-5.74-5.74-5.74-16.388V90.91h11.202v26.69q0 12.999 10.787 12.999 5.255 0 8.02-3.112 2.766-3.18 2.766-9.887V90.91h11.063v27.104q0 10.649-5.808 16.388-5.739 5.739-16.11 5.739zM258.121 139.311l-9.335-13.483h-10.303v13.483h-11.2V90.91h20.95q6.43 0 11.133 2.143 4.77 2.144 7.329 6.085 2.558 3.941 2.558 9.335 0 5.393-2.627 9.334-2.559 3.872-7.33 5.946l10.856 15.558zm-.207-30.838q0-4.08-2.628-6.223-2.627-2.213-7.675-2.213h-9.127v16.871h9.127q5.048 0 7.675-2.212 2.628-2.213 2.628-6.223zM315.152 100.037h-15.488V90.91h42.178v9.127h-15.489v39.274h-11.201zM392.76 130.322v8.989h-37.475V90.91h36.577v8.989h-25.445v10.51h22.472v8.712h-22.472v11.201zM441.1 128.94h-22.472l-4.287 10.371h-11.478l21.573-48.401H435.5l21.643 48.401h-11.755zm-3.526-8.505l-7.675-18.531-7.675 18.53zM513.692 139.311l-.07-29.04-14.243 23.923h-5.048l-14.174-23.301v28.418h-10.51V90.91h9.265l18.116 30.078 17.84-30.078h9.196l.138 48.401z"/></g></g></svg>